<?xml version="1.0" encoding="UTF-8"?>
<svg xmlns="http://www.w3.org/2000/svg" width="1200" height="800" viewBox="0 0 1200 800">
<style>
.node-rect { fill: lightblue; stroke: black; stroke-width: 1; }
.terminal-rect { fill: lightgreen; stroke: black; stroke-width: 1; }
.wither-rect { fill: lightcoral; stroke: black; stroke-width: 1; }
.survive-rect { fill: lightgreen; stroke: black; stroke-width: 1; }
.node-text { font-family: Arial; font-size: 10px; text-anchor: middle; }
.edge-line { stroke: black; stroke-width: 1; }
.edge-text { font-family: Arial; font-size: 8px; text-anchor: middle; }
</style>
<line x1="600" y1="70" x2="350.0" y2="130" class="edge-line"/>
<text x="475.0" y="100.0" class="edge-text">40.0% W</text>
<line x1="600" y1="70" x2="850.0" y2="130" class="edge-line"/>
<text x="725.0" y="100.0" class="edge-text">60.0% S</text>
<line x1="350.0" y1="170" x2="175.0" y2="230" class="edge-line"/>
<text x="262.5" y="200.0" class="edge-text">40.0% W</text>
<line x1="350.0" y1="170" x2="525.0" y2="230" class="edge-line"/>
<text x="437.5" y="200.0" class="edge-text">60.0% S</text>
<line x1="175.0" y1="270" x2="52.500000000000014" y2="330" class="edge-line"/>
<text x="113.75" y="300.0" class="edge-text">40.0% W</text>
<line x1="175.0" y1="270" x2="297.5" y2="330" class="edge-line"/>
<text x="236.25" y="300.0" class="edge-text">60.0% S</text>
<line x1="52.500000000000014" y1="370" x2="-33.24999999999997" y2="430" class="edge-line"/>
<text x="9.625000000000021" y="400.0" class="edge-text">40.0% W</text>
<line x1="52.500000000000014" y1="370" x2="138.25" y2="430" class="edge-line"/>
<text x="95.375" y="400.0" class="edge-text">60.0% S</text>
<line x1="297.5" y1="370" x2="211.75" y2="430" class="edge-line"/>
<text x="254.625" y="400.0" class="edge-text">40.0% W</text>
<line x1="297.5" y1="370" x2="383.25" y2="430" class="edge-line"/>
<text x="340.375" y="400.0" class="edge-text">60.0% S</text>
<line x1="525.0" y1="270" x2="402.5" y2="330" class="edge-line"/>
<text x="463.75" y="300.0" class="edge-text">40.0% W</text>
<line x1="525.0" y1="270" x2="647.5" y2="330" class="edge-line"/>
<text x="586.25" y="300.0" class="edge-text">60.0% S</text>
<line x1="402.5" y1="370" x2="316.75" y2="430" class="edge-line"/>
<text x="359.625" y="400.0" class="edge-text">40.0% W</text>
<line x1="402.5" y1="370" x2="488.25" y2="430" class="edge-line"/>
<text x="445.375" y="400.0" class="edge-text">60.0% S</text>
<line x1="647.5" y1="370" x2="561.75" y2="430" class="edge-line"/>
<text x="604.625" y="400.0" class="edge-text">40.0% W</text>
<line x1="647.5" y1="370" x2="733.25" y2="430" class="edge-line"/>
<text x="690.375" y="400.0" class="edge-text">60.0% S</text>
<line x1="850.0" y1="170" x2="850.0" y2="230" class="edge-line"/>
<text x="850.0" y="200.0" class="edge-text">100.0% S</text>
<line x1="850.0" y1="270" x2="727.5" y2="330" class="edge-line"/>
<text x="788.75" y="300.0" class="edge-text">40.0% W</text>
<line x1="850.0" y1="270" x2="972.5" y2="330" class="edge-line"/>
<text x="911.25" y="300.0" class="edge-text">60.0% S</text>
<line x1="727.5" y1="370" x2="641.75" y2="430" class="edge-line"/>
<text x="684.625" y="400.0" class="edge-text">40.0% W</text>
<line x1="727.5" y1="370" x2="813.25" y2="430" class="edge-line"/>
<text x="770.375" y="400.0" class="edge-text">60.0% S</text>
<line x1="972.5" y1="370" x2="972.5" y2="430" class="edge-line"/>
<text x="972.5" y="400.0" class="edge-text">100.0% S</text>
<rect x="560" y="30" width="80" height="40" class="node-rect"/>
<text x="600" y="45" class="node-text">Harvest B</text>
<text x="600" y="57" class="node-text">Pair 4</text>
<text x="600" y="69" class="node-text">EV: 6373</text>
<rect x="310.0" y="130" width="80" height="40" class="node-rect"/>
<text x="350.0" y="145" class="node-text">Harvest B</text>
<text x="350.0" y="157" class="node-text">Pair 3</text>
<text x="350.0" y="169" class="node-text">EV: 5559</text>
<rect x="135.0" y="230" width="80" height="40" class="node-rect"/>
<text x="175.0" y="245" class="node-text">Harvest Y</text>
<text x="175.0" y="257" class="node-text">Pair 2</text>
<text x="175.0" y="269" class="node-text">EV: 5829</text>
<rect x="12.500000000000014" y="330" width="80" height="40" class="node-rect"/>
<text x="52.500000000000014" y="345" class="node-text">Harvest Y</text>
<text x="52.500000000000014" y="357" class="node-text">Pair 1</text>
<text x="52.500000000000014" y="369" class="node-text">EV: 4245</text>
<rect x="-73.24999999999997" y="430" width="80" height="40" class="node-rect"/>
<text x="-33.24999999999997" y="445" class="node-text">Harvest P</text>
<text x="-33.24999999999997" y="457" class="node-text">Pair 5</text>
<text x="-33.24999999999997" y="469" class="node-text">EV: 3348</text>
<rect x="98.25" y="430" width="80" height="40" class="node-rect"/>
<text x="138.25" y="445" class="node-text">Harvest P</text>
<text x="138.25" y="457" class="node-text">Pair 1</text>
<text x="138.25" y="469" class="node-text">EV: 3348</text>
<rect x="257.5" y="330" width="80" height="40" class="node-rect"/>
<text x="297.5" y="345" class="node-text">Harvest P</text>
<text x="297.5" y="357" class="node-text">Pair 5</text>
<text x="297.5" y="369" class="node-text">EV: 5390</text>
<rect x="171.75" y="430" width="80" height="40" class="node-rect"/>
<text x="211.75" y="445" class="node-text">Harvest Y</text>
<text x="211.75" y="457" class="node-text">Pair 2</text>
<text x="211.75" y="469" class="node-text">EV: 5374</text>
<rect x="343.25" y="430" width="80" height="40" class="node-rect"/>
<text x="383.25" y="445" class="node-text">Harvest Y</text>
<text x="383.25" y="457" class="node-text">Pair 1</text>
<text x="383.25" y="469" class="node-text">EV: 2025</text>
<rect x="485.0" y="230" width="80" height="40" class="node-rect"/>
<text x="525.0" y="245" class="node-text">Harvest B</text>
<text x="525.0" y="257" class="node-text">Pair 5</text>
<text x="525.0" y="269" class="node-text">EV: 5376</text>
<rect x="362.5" y="330" width="80" height="40" class="node-rect"/>
<text x="402.5" y="345" class="node-text">Harvest Y</text>
<text x="402.5" y="357" class="node-text">Pair 1</text>
<text x="402.5" y="369" class="node-text">EV: 5374</text>
<rect x="276.75" y="430" width="80" height="40" class="node-rect"/>
<text x="316.75" y="445" class="node-text">Harvest P</text>
<text x="316.75" y="457" class="node-text">Pair 3</text>
<text x="316.75" y="469" class="node-text">EV: 3348</text>
<rect x="448.25" y="430" width="80" height="40" class="node-rect"/>
<text x="488.25" y="445" class="node-text">Harvest P</text>
<text x="488.25" y="457" class="node-text">Pair 1</text>
<text x="488.25" y="469" class="node-text">EV: 3348</text>
<rect x="607.5" y="330" width="80" height="40" class="node-rect"/>
<text x="647.5" y="345" class="node-text">Harvest Y</text>
<text x="647.5" y="357" class="node-text">Pair 1</text>
<text x="647.5" y="369" class="node-text">EV: 5374</text>
<rect x="521.75" y="430" width="80" height="40" class="node-rect"/>
<text x="561.75" y="445" class="node-text">Harvest P</text>
<text x="561.75" y="457" class="node-text">Pair 3</text>
<text x="561.75" y="469" class="node-text">EV: 3348</text>
<rect x="693.25" y="430" width="80" height="40" class="node-rect"/>
<text x="733.25" y="445" class="node-text">Harvest P</text>
<text x="733.25" y="457" class="node-text">Pair 1</text>
<text x="733.25" y="469" class="node-text">EV: 3348</text>
<rect x="810.0" y="130" width="80" height="40" class="node-rect"/>
<text x="850.0" y="145" class="node-text">Harvest B</text>
<text x="850.0" y="157" class="node-text">Pair 4</text>
<text x="850.0" y="169" class="node-text">EV: 6912</text>
<rect x="810.0" y="230" width="80" height="40" class="node-rect"/>
<text x="850.0" y="245" class="node-text">Harvest P</text>
<text x="850.0" y="257" class="node-text">Pair 1</text>
<text x="850.0" y="269" class="node-text">EV: 6910</text>
<rect x="687.5" y="330" width="80" height="40" class="node-rect"/>
<text x="727.5" y="345" class="node-text">Harvest Y</text>
<text x="727.5" y="357" class="node-text">Pair 2</text>
<text x="727.5" y="369" class="node-text">EV: 6948</text>
<rect x="601.75" y="430" width="80" height="40" class="node-rect"/>
<text x="641.75" y="445" class="node-text">Harvest B</text>
<text x="641.75" y="457" class="node-text">Pair 3</text>
<text x="641.75" y="469" class="node-text">EV: 4245</text>
<rect x="773.25" y="430" width="80" height="40" class="node-rect"/>
<text x="813.25" y="445" class="node-text">Harvest Y</text>
<text x="813.25" y="457" class="node-text">Pair 2</text>
<text x="813.25" y="469" class="node-text">EV: 5374</text>
<rect x="932.5" y="330" width="80" height="40" class="node-rect"/>
<text x="972.5" y="345" class="node-text">Harvest Y</text>
<text x="972.5" y="357" class="node-text">Pair 1</text>
<text x="972.5" y="369" class="node-text">EV: 5390</text>
<rect x="932.5" y="430" width="80" height="40" class="node-rect"/>
<text x="972.5" y="445" class="node-text">Harvest Y</text>
<text x="972.5" y="457" class="node-text">Pair 2</text>
<text x="972.5" y="469" class="node-text">EV: 3365</text>
</svg>